<?xml version="1.0" standalone="no"?><!DOCTYPE svg PUBLIC "-//W3C//DTD SVG 1.1//EN" "http://www.w3.org/Graphics/SVG/1.1/DTD/svg11.dtd"><svg t="1694746637518" class="icon" viewBox="0 0 1024 1024" version="1.1" xmlns="http://www.w3.org/2000/svg" p-id="6740" xmlns:xlink="http://www.w3.org/1999/xlink" width="200" height="200"><path d="M426.666667 768v170.666667s0 85.333333 85.333333 85.333333 85.333333-85.333333 85.333333-85.333333v-170.666667h-170.666666z" fill="#DD2E44" p-id="6741"></path><path d="M426.666667 938.666667l0.028444 1.052444c29.610667-0.995556 57.344-7.793778 74.865778-36.579555a12.117333 12.117333 0 0 1 20.906667 0c17.521778 28.757333 45.255111 35.584 74.865777 36.579555V768h-170.666666v170.666667z" fill="#BE1931" p-id="6742"></path><path d="M908.913778 614.940444c0 178.517333-142.222222 178.517333-142.222222 178.517334h-512s-142.222222 0-142.222223-178.517334c0-191.260444 142.222222-529.607111 398.222223-529.607111s398.222222 366.791111 398.222222 529.607111z" fill="#D99E82" p-id="6743"></path><path d="M512 568.888889c-199.111111 0-284.444444 100.323556-284.444444 181.902222a156.444444 156.444444 0 0 0 156.444444 156.444445c45.653333 0 86.528-18.887111 115.171556-78.705778a14.08 14.08 0 0 1 25.628444 0c28.643556 59.818667 69.546667 78.705778 115.171556 78.705778a156.444444 156.444444 0 0 0 156.444444-156.444445C796.444444 669.212444 711.111111 568.888889 512 568.888889z" fill="#F4C7B5" p-id="6744"></path><path d="M426.666667 651.235556c-28.444444 28.444444 56.888889 113.777778 85.333333 113.777777s113.777778-85.333333 85.333333-113.777777-142.222222-28.444444-170.666666 0zM369.777778 540.444444c-31.288889 0-56.888889-25.6-56.888889-56.888888v-56.888889c0-31.288889 25.6-56.888889 56.888889-56.888889s56.888889 25.6 56.888889 56.888889v56.888889c0 31.288889-25.6 56.888889-56.888889 56.888888z m284.444444 0c-31.288889 0-56.888889-25.6-56.888889-56.888888v-56.888889c0-31.288889 25.6-56.888889 56.888889-56.888889s56.888889 25.6 56.888889 56.888889v56.888889c0 31.288889-25.6 56.888889-56.888889 56.888888z" fill="#292F33" p-id="6745"></path><path d="M426.666667 102.627556C396.544 62.549333 332.259556 25.059556 80.440889 119.466667-37.432889 163.669333 20.138667 506.424889 111.928889 528.64c31.459556 0 125.895111 0 125.895111-251.790222 0-6.257778-0.056889-12.032-0.142222-17.777778C294.4 179.143111 355.555556 138.154667 426.666667 102.627556z m516.892444 16.839111C691.740444 25.059556 627.456 62.549333 597.333333 102.627556c71.111111 35.555556 132.266667 76.544 188.984889 156.472888-0.085333 5.717333-0.142222 11.491556-0.142222 17.777778 0 251.790222 94.407111 251.790222 125.895111 251.790222 91.790222-22.243556 149.361778-364.999111 31.488-409.201777z" fill="#662113" p-id="6746"></path><path d="M668.444444 739.555556a14.222222 14.222222 0 1 0 0-28.444445 14.222222 14.222222 0 0 0 0 28.444445zM327.111111 739.555556a14.222222 14.222222 0 1 0 0-28.444445 14.222222 14.222222 0 0 0 0 28.444445zM725.333333 796.444444a14.222222 14.222222 0 1 0 0-28.444444 14.222222 14.222222 0 0 0 0 28.444444zM298.666667 796.444444a14.222222 14.222222 0 1 0 0-28.444444 14.222222 14.222222 0 0 0 0 28.444444zM654.222222 824.888889a28.444444 28.444444 0 1 0 0-56.888889 28.444444 28.444444 0 0 0 0 56.888889zM369.777778 824.888889a28.444444 28.444444 0 1 0 0-56.888889 28.444444 28.444444 0 0 0 0 56.888889z" fill="#D99E82" p-id="6747"></path><path d="M281.116444 205.710222c-7.367111-19.143111-18.033778-39.736889-33.450666-55.153778a28.416 28.416 0 1 0-40.220445 40.220445c16.213333 16.213333 30.321778 55.011556 30.378667 66.730667 4.124444-11.491556 23.864889-32.711111 43.292444-51.797334z m461.283556 0c7.367111-19.114667 18.033778-39.736889 33.450667-55.153778a28.416 28.416 0 1 1 40.220444 40.220445c-16.213333 16.213333-30.321778 55.011556-30.378667 66.730667-4.124444-11.491556-23.864889-32.711111-43.292444-51.797334z" fill="#380F09" p-id="6748"></path></svg>